<svg xmlns="http://www.w3.org/2000/svg" viewBox="0 0 160 160" role="img" aria-labelledby="title desc">
  <title id="title">Logo Adopciones Kalö</title>
  <desc id="desc">Huella con corazón en tonos suaves</desc>
  <defs>
    <linearGradient id="g" x1="0" x2="1" y1="0" y2="1">
      <stop offset="0" stop-color="#ef7f6d"/>
      <stop offset="1" stop-color="#f6b18a"/>
    </linearGradient>
  </defs>
  <rect width="160" height="160" rx="38" fill="#fff7f2"/>
  <circle cx="50" cy="49" r="17" fill="url(#g)"/>
  <circle cx="110" cy="49" r="17" fill="url(#g)"/>
  <circle cx="37" cy="87" r="16" fill="url(#g)"/>
  <circle cx="123" cy="87" r="16" fill="url(#g)"/>
  <path d="M80 62c-20 0-36 14-36 32 0 14 11 24 27 24h18c16 0 27-10 27-24 0-18-16-32-36-32Z" fill="#7cb5a0"/>
  <path d="M80 84c-7-10-24-3-17 10 7 12 17 18 17 18s10-6 17-18c7-13-10-20-17-10Z" fill="#fff"/>
</svg>

